<svg width="84" height="24" viewBox="0 0 84 24" fill="none" xmlns="http://www.w3.org/2000/svg">
<path d="M0.146484 0H83.2686V24H0.146484V0Z" fill="#00094A"/>
<path fill-rule="evenodd" clip-rule="evenodd" d="M8.20132 10.5606L9.17016 11.5399C9.45111 11.8239 9.45111 12.2887 9.17016 12.5727L8.20132 13.5519C7.92036 13.8359 7.46051 13.8359 7.17956 13.5519L6.21071 12.5727C5.92976 12.2887 5.92976 11.8239 6.21071 11.5399L7.17956 10.5606C7.46051 10.2767 7.91973 10.2767 8.20132 10.5606Z" fill="#06A39C"/>
<path fill-rule="evenodd" clip-rule="evenodd" d="M8.20132 16.2511L9.17016 17.2303C9.45111 17.5143 9.45111 17.9791 9.17016 18.2631L8.20132 19.2423C7.92036 19.5263 7.46051 19.5263 7.17956 19.2423L6.21071 18.2631C5.92976 17.9791 5.92976 17.5143 6.21071 17.2303L7.17956 16.2511C7.46051 15.9664 7.91973 15.9664 8.20132 16.2511Z" fill="#06A39C"/>
<path fill-rule="evenodd" clip-rule="evenodd" d="M13.831 4.86972L14.7998 5.84898C15.0808 6.13296 15.0808 6.59776 14.7998 6.88174L13.831 7.861C13.55 8.14497 13.0901 8.14497 12.8092 7.861L11.8404 6.88174C11.5594 6.59776 11.5594 6.13296 11.8404 5.84898L12.8092 4.86972C13.0908 4.58574 13.55 4.58574 13.831 4.86972Z" fill="#30D2A3"/>
<path fill-rule="evenodd" clip-rule="evenodd" d="M13.831 10.5606L14.7998 11.5399C15.0808 11.8239 15.0808 12.2887 14.7998 12.5727L13.831 13.5519C13.55 13.8359 13.0901 13.8359 12.8092 13.5519L11.8404 12.5727C11.5594 12.2887 11.5594 11.8239 11.8404 11.5399L12.8092 10.5606C13.0908 10.2767 13.55 10.2767 13.831 10.5606Z" fill="#30D2A3"/>
<path fill-rule="evenodd" clip-rule="evenodd" d="M13.831 16.2511L14.7998 17.2303C15.0808 17.5143 15.0808 17.9791 14.7998 18.2631L13.831 19.2423C13.55 19.5263 13.0901 19.5263 12.8092 19.2423L11.8404 18.2631C11.5594 17.9791 11.5594 17.5143 11.8404 17.2303L12.8092 16.2511C13.0908 15.9664 13.55 15.9664 13.831 16.2511Z" fill="#06A39C"/>
<path fill-rule="evenodd" clip-rule="evenodd" d="M19.4614 4.86972L20.4303 5.84898C20.7112 6.13296 20.7112 6.59776 20.4303 6.88174L19.4614 7.861C19.1805 8.14497 18.7206 8.14497 18.4397 7.861L17.4708 6.88174C17.1899 6.59776 17.1899 6.13296 17.4708 5.84898L18.4397 4.86972C18.7206 4.58574 19.1805 4.58574 19.4614 4.86972Z" fill="#30D2A3"/>
<path fill-rule="evenodd" clip-rule="evenodd" d="M19.4614 10.5606L20.4303 11.5399C20.7112 11.8239 20.7112 12.2887 20.4303 12.5727L19.4614 13.5519C19.1805 13.8359 18.7206 13.8359 18.4397 13.5519L17.4708 12.5727C17.1899 12.2887 17.1899 11.8239 17.4708 11.5399L18.4397 10.5606C18.7206 10.2767 19.1805 10.2767 19.4614 10.5606Z" fill="#30D2A3"/>
<path fill-rule="evenodd" clip-rule="evenodd" d="M19.4614 16.2511L20.4303 17.2303C20.7112 17.5143 20.7112 17.9791 20.4303 18.2631L19.4614 19.2423C19.1805 19.5263 18.7206 19.5263 18.4397 19.2423L17.4708 18.2631C17.1899 17.9791 17.1899 17.5143 17.4708 17.2303L18.4397 16.2511C18.7206 15.9664 19.1805 15.9664 19.4614 16.2511Z" fill="#06A39C"/>
<path fill-rule="evenodd" clip-rule="evenodd" d="M8.20156 4.86972L9.1704 5.84898C9.45136 6.13296 9.45136 6.59776 9.1704 6.88174L8.20156 7.861C7.92061 8.14497 7.46075 8.14497 7.1798 7.861L6.21096 6.88174C5.93001 6.59776 5.93001 6.13296 6.21096 5.84898L7.1798 4.86972C7.46075 4.58574 7.91998 4.58574 8.20156 4.86972Z" fill="#30D2A3"/>
<path fill-rule="evenodd" clip-rule="evenodd" d="M29.0807 12.0804L29.4121 12.9241C29.4518 13.0311 29.5311 13.0712 29.637 13.0311L30.5775 12.7229C30.723 12.6828 30.7362 12.5624 30.6965 12.4548L30.5245 11.8926C30.379 11.4106 30.3526 10.9153 30.3526 10.3798V8.05006C30.3526 6.24243 28.9352 5.53313 27.3723 5.53313C26.0476 5.53313 25.1474 5.89479 24.2598 6.5506C24.1672 6.61746 24.1408 6.75116 24.2334 6.85877L24.7499 7.59481C24.816 7.6884 24.9616 7.70178 25.068 7.63492C25.8101 7.1663 26.406 6.99248 27.373 6.99248C28.1679 6.99248 28.8168 7.24717 28.8168 7.87624V8.03669L26.4854 8.34486C24.8564 8.55879 23.8894 9.41581 23.8894 10.7682C23.8894 12.1339 24.949 13.0444 26.4721 13.0444C27.5317 13.0444 28.3664 12.7095 29.0152 12.0804H29.0807ZM28.8155 10.5676C28.3519 11.1967 27.6369 11.5851 26.6303 11.5851C25.7956 11.5851 25.4252 11.2368 25.4252 10.688C25.4252 10.2193 25.7565 9.85769 26.4847 9.73735L28.8161 9.34895V10.5676H28.8155ZM32.2329 3.51221C32.1139 3.51221 32.0477 3.57906 32.0477 3.6994V12.7496C32.0477 12.87 32.1139 12.9368 32.2329 12.9368H33.1337C33.2396 12.9368 33.3057 12.8833 33.3322 12.7764L33.438 12.2944L33.5306 12.281C34.0736 12.8165 34.8554 13.0444 35.6629 13.0444C37.782 13.0444 39.3852 11.5316 39.3852 9.28273C39.3852 7.03386 37.8224 5.53441 35.6629 5.53441C34.868 5.53441 34.2059 5.73497 33.5835 6.25708V3.70004C33.5835 3.5797 33.5174 3.51284 33.3983 3.51284L32.2329 3.51221ZM33.5841 7.87687C34.1536 7.28791 34.7231 7.00649 35.6636 7.00649C36.9222 7.00649 37.862 7.89024 37.862 9.28273C37.862 10.6886 36.9215 11.5724 35.6636 11.5724C34.776 11.5724 34.1536 11.2909 33.5841 10.6619V7.87687ZM40.6306 5.64074C40.5116 5.64074 40.4454 5.70759 40.4454 5.82793V9.84431C40.4454 12.0664 41.6505 13.0438 43.4521 13.0438C44.2471 13.0438 44.9753 12.8165 45.5977 12.2403H45.6771L45.7961 12.7757C45.8226 12.8827 45.8887 12.9362 46.0078 12.9362H46.9483C47.0673 12.9362 47.1335 12.8693 47.1335 12.749V5.82857C47.1335 5.70823 47.0673 5.64137 46.9483 5.64137H45.7829C45.6638 5.64137 45.5977 5.70823 45.5977 5.82857V10.6351C45.1208 11.2642 44.3523 11.5724 43.6109 11.5724C42.4984 11.5724 41.9818 11.0235 41.9818 9.75135V5.82857C41.9818 5.70823 41.9157 5.64137 41.7966 5.64137H40.6306V5.64074ZM49.2797 5.66748L48.4185 5.74771C48.3127 5.76108 48.2598 5.82793 48.2598 5.92153V6.89888C48.2598 7.01922 48.3259 7.08607 48.445 7.08607H49.2664V10.5937C49.2664 12.0263 49.955 13.0438 51.5449 13.0438C52.2202 13.0438 52.7235 12.8967 53.2136 12.5752C53.3327 12.5083 53.3591 12.4281 53.3062 12.3071L52.9484 11.4501C52.9087 11.3565 52.8294 11.303 52.6832 11.3699C52.4048 11.517 52.0873 11.5838 51.7295 11.5838C51.16 11.5838 50.8022 11.2355 50.8022 10.553V7.08544H52.7626C52.8816 7.08544 52.9478 7.01858 52.9478 6.89824V5.8273C52.9478 5.70696 52.8816 5.6401 52.7626 5.6401H50.8022V4.22087C50.8022 4.10053 50.7096 4.03367 50.617 4.03367H49.611C49.5052 4.03367 49.439 4.10053 49.4258 4.22087L49.2797 5.66748ZM60.3533 10.8357C60.2872 10.7555 60.2078 10.7554 60.1417 10.8223C59.4532 11.3979 58.7375 11.5857 57.8367 11.5857C56.6713 11.5857 55.8499 10.9433 55.5979 10.0194H61.2667C61.3726 10.0194 61.4255 9.95256 61.4255 9.83222V9.29674C61.4255 7.11473 59.9155 5.53441 57.77 5.53441C55.6112 5.53441 53.9947 7.11409 53.9947 9.29674C53.9947 11.452 55.5708 13.0451 57.8361 13.0451C58.8957 13.0451 60.0214 12.7369 60.9751 11.9206C61.0412 11.8538 61.0545 11.7736 60.9883 11.7067L60.3533 10.8357ZM57.77 6.99312C58.8163 6.99312 59.7568 7.63556 59.8626 8.5728H55.5841C55.7964 7.64893 56.6972 6.99312 57.77 6.99312ZM66.2206 5.53377C64.1015 5.53377 62.485 7.11346 62.485 9.26873C62.485 11.424 64.1008 13.0444 66.2206 13.0444C67.5453 13.0444 68.6975 12.4555 69.3728 11.331C69.4257 11.2642 69.4125 11.184 69.3463 11.1171L68.5117 10.4479C68.4323 10.3811 68.3661 10.3811 68.3 10.4479C67.757 11.2514 67.1214 11.5724 66.2206 11.5724C64.909 11.5724 64.0221 10.595 64.0221 9.26936C64.0221 7.94373 64.8964 7.00649 66.2206 7.00649C67.1214 7.00649 67.7173 7.3414 68.2603 8.09081C68.3132 8.15766 68.419 8.21115 68.5117 8.11755L69.3463 7.47511C69.4125 7.42162 69.4257 7.35477 69.3728 7.26117C68.7378 6.16284 67.466 5.53377 66.2206 5.53377ZM70.8569 3.51221C70.7379 3.51221 70.6717 3.57906 70.6717 3.6994V12.7496C70.6717 12.87 70.7379 12.9368 70.8569 12.9368H72.0223C72.1414 12.9368 72.2075 12.87 72.2075 12.7496V7.85013C72.7373 7.26117 73.3597 7.00649 74.1414 7.00649C75.201 7.00649 75.8233 7.62219 75.8233 8.90771V12.7503C75.8233 12.8706 75.8895 12.9375 76.0085 12.9375H77.1739C77.293 12.9375 77.3591 12.8706 77.3591 12.7503V8.85423C77.3591 6.65884 76.0079 5.53377 74.1408 5.53377C73.3987 5.53377 72.7499 5.7477 72.2069 6.26981V3.6994C72.2069 3.57906 72.1407 3.51221 72.0217 3.51221H70.8569Z" fill="white"/>
<path d="M25.16 19.5737C24.9576 19.5737 24.763 19.5462 24.5762 19.4911C24.3893 19.4327 24.243 19.3598 24.1371 19.2723L24.3239 18.9028C24.4329 18.9839 24.5653 19.0487 24.721 19.0973C24.8767 19.1459 25.0339 19.1702 25.1927 19.1702C25.5851 19.1702 25.7813 19.0535 25.7813 18.8202C25.7813 18.7424 25.7548 18.6808 25.7019 18.6355C25.6489 18.5901 25.582 18.5577 25.501 18.5382C25.4232 18.5155 25.3111 18.4912 25.1647 18.4653C24.9654 18.4329 24.8019 18.3956 24.6743 18.3535C24.5497 18.3114 24.4423 18.2401 24.352 18.1396C24.2616 18.0391 24.2165 17.8981 24.2165 17.7167C24.2165 17.4833 24.3099 17.2969 24.4968 17.1576C24.6836 17.015 24.9343 16.9437 25.2488 16.9437C25.4138 16.9437 25.5789 16.9648 25.7439 17.0069C25.909 17.049 26.0444 17.1057 26.1503 17.177L25.9588 17.5465C25.7564 17.4104 25.5181 17.3423 25.2441 17.3423C25.0542 17.3423 24.9094 17.3747 24.8097 17.4396C24.7101 17.5044 24.6602 17.5903 24.6602 17.6972C24.6602 17.7815 24.6883 17.8479 24.7443 17.8965C24.8004 17.9451 24.8689 17.9808 24.9498 18.0035C25.0339 18.0262 25.1507 18.0521 25.3002 18.0813C25.4995 18.1169 25.6598 18.1558 25.7813 18.1979C25.9058 18.2368 26.0117 18.3049 26.0989 18.4021C26.1861 18.4993 26.2297 18.6355 26.2297 18.8105C26.2297 19.0438 26.1332 19.2302 25.9401 19.3695C25.7501 19.5057 25.4901 19.5737 25.16 19.5737Z" fill="white"/>
<path d="M27.8504 19.5737C27.6044 19.5737 27.3833 19.517 27.1871 19.4036C26.991 19.2901 26.8368 19.1346 26.7247 18.9369C26.6157 18.7359 26.5612 18.5091 26.5612 18.2563C26.5612 18.0035 26.6157 17.7782 26.7247 17.5805C26.8368 17.3796 26.991 17.224 27.1871 17.1138C27.3833 17.0004 27.6044 16.9437 27.8504 16.9437C28.0964 16.9437 28.316 17.0004 28.509 17.1138C28.7052 17.224 28.8578 17.3796 28.9668 17.5805C29.0789 17.7782 29.135 18.0035 29.135 18.2563C29.135 18.5091 29.0789 18.7359 28.9668 18.9369C28.8578 19.1346 28.7052 19.2901 28.509 19.4036C28.316 19.517 28.0964 19.5737 27.8504 19.5737ZM27.8504 19.1654C28.0092 19.1654 28.1509 19.1281 28.2755 19.0535C28.4032 18.9758 28.5028 18.8688 28.5744 18.7327C28.6461 18.5933 28.6819 18.4345 28.6819 18.2563C28.6819 18.078 28.6461 17.9208 28.5744 17.7847C28.5028 17.6454 28.4032 17.5384 28.2755 17.4639C28.1509 17.3893 28.0092 17.352 27.8504 17.352C27.6916 17.352 27.5484 17.3893 27.4207 17.4639C27.2961 17.5384 27.1965 17.6454 27.1218 17.7847C27.0501 17.9208 27.0143 18.078 27.0143 18.2563C27.0143 18.4345 27.0501 18.5933 27.1218 18.7327C27.1965 18.8688 27.2961 18.9758 27.4207 19.0535C27.5484 19.1281 27.6916 19.1654 27.8504 19.1654Z" fill="white"/>
<path d="M30.6613 16.2923C30.3935 16.2923 30.2596 16.443 30.2596 16.7444V16.968H30.9789V17.352H30.2689V19.5445H29.8205V17.352H29.4001V16.968H29.8205V16.7395C29.8205 16.4835 29.8921 16.2809 30.0354 16.1318C30.1786 15.9827 30.3795 15.9082 30.6379 15.9082C30.7376 15.9082 30.831 15.9212 30.9182 15.9471C31.0054 15.973 31.0801 16.0103 31.1424 16.0589L31.0069 16.4138C30.9042 16.3328 30.789 16.2923 30.6613 16.2923Z" fill="white"/>
<path d="M32.7938 19.3938C32.7284 19.4522 32.6474 19.4976 32.5509 19.53C32.4544 19.5591 32.3547 19.5737 32.252 19.5737C32.0028 19.5737 31.8098 19.504 31.6727 19.3647C31.5357 19.2253 31.4672 19.026 31.4672 18.7667V17.352H31.0468V16.968H31.4672V16.4041H31.9156V16.968H32.6256V17.352H31.9156V18.7473C31.9156 18.8866 31.9483 18.9936 32.0137 19.0681C32.0822 19.1427 32.1788 19.1799 32.3033 19.1799C32.4403 19.1799 32.5571 19.1394 32.6537 19.0584L32.7938 19.3938Z" fill="white"/>
<path d="M37.0365 16.968L36.1116 19.5445H35.6819L34.9672 17.5903L34.2432 19.5445H33.8135L32.8933 16.968H33.3183L34.0377 19.0195L34.785 16.968H35.1634L35.8967 19.0292L36.6348 16.968H37.0365Z" fill="white"/>
<path d="M38.3154 16.9437C38.658 16.9437 38.9196 17.0312 39.1002 17.2062C39.2839 17.3812 39.3758 17.6421 39.3758 17.9889V19.5445H38.9507V19.2042C38.876 19.3242 38.7685 19.4165 38.6284 19.4813C38.4914 19.5429 38.3279 19.5737 38.1379 19.5737C37.8608 19.5737 37.6381 19.504 37.47 19.3647C37.3049 19.2253 37.2224 19.0422 37.2224 18.8153C37.2224 18.5885 37.3018 18.407 37.4606 18.2709C37.6195 18.1315 37.8717 18.0618 38.2173 18.0618H38.9273V17.9694C38.9273 17.7685 38.8713 17.6146 38.7592 17.5076C38.6471 17.4007 38.482 17.3472 38.2641 17.3472C38.1177 17.3472 37.9745 17.3731 37.8343 17.425C37.6942 17.4736 37.5759 17.54 37.4793 17.6243L37.2925 17.2743C37.4202 17.1673 37.5727 17.0863 37.7502 17.0312C37.9277 16.9729 38.1161 16.9437 38.3154 16.9437ZM38.2127 19.214C38.3839 19.214 38.5319 19.1751 38.6564 19.0973C38.781 19.0163 38.8713 18.9028 38.9273 18.757V18.3973H38.236C37.8561 18.3973 37.6662 18.5301 37.6662 18.7959C37.6662 18.9255 37.7144 19.0276 37.811 19.1022C37.9075 19.1767 38.0414 19.214 38.2127 19.214Z" fill="white"/>
<path d="M40.6353 17.4007C40.7132 17.2516 40.8284 17.1381 40.981 17.0604C41.1336 16.9826 41.3189 16.9437 41.5368 16.9437V17.3958C41.5119 17.3926 41.4777 17.3909 41.4341 17.3909C41.1912 17.3909 40.9997 17.4671 40.8595 17.6194C40.7225 17.7685 40.654 17.9824 40.654 18.2611V19.5445H40.2056V16.968H40.6353V17.4007Z" fill="white"/>
<path d="M44.3041 18.2709C44.3041 18.3065 44.301 18.3535 44.2948 18.4118H42.2862C42.3143 18.6387 42.4092 18.8218 42.5712 18.9612C42.7362 19.0973 42.9402 19.1654 43.1831 19.1654C43.4789 19.1654 43.7171 19.0616 43.8977 18.8542L44.1453 19.1556C44.0332 19.2918 43.8931 19.3955 43.7249 19.4668C43.5599 19.5381 43.3746 19.5737 43.1691 19.5737C42.9075 19.5737 42.6755 19.5186 42.4731 19.4084C42.2707 19.295 42.1134 19.1378 42.0013 18.9369C41.8923 18.7359 41.8378 18.5091 41.8378 18.2563C41.8378 18.0067 41.8908 17.7815 41.9966 17.5805C42.1056 17.3796 42.2535 17.224 42.4404 17.1138C42.6303 17.0004 42.8436 16.9437 43.0803 16.9437C43.317 16.9437 43.5272 17.0004 43.7109 17.1138C43.8977 17.224 44.0425 17.3796 44.1453 17.5805C44.2512 17.7815 44.3041 18.0116 44.3041 18.2709ZM43.0803 17.3375C42.8654 17.3375 42.6848 17.4055 42.5385 17.5416C42.3952 17.6778 42.3112 17.856 42.2862 18.0764H43.8744C43.8495 17.8593 43.7638 17.6826 43.6175 17.5465C43.4742 17.4071 43.2952 17.3375 43.0803 17.3375Z" fill="white"/>
<path d="M48.5167 15.9374V19.5445H48.087V19.1362C47.9873 19.2788 47.8612 19.3874 47.7086 19.4619C47.556 19.5364 47.3879 19.5737 47.2042 19.5737C46.9644 19.5737 46.7495 19.5186 46.5596 19.4084C46.3696 19.2982 46.2201 19.1443 46.1111 18.9466C46.0053 18.7457 45.9523 18.5155 45.9523 18.2563C45.9523 17.997 46.0053 17.7685 46.1111 17.5708C46.2201 17.3731 46.3696 17.2192 46.5596 17.109C46.7495 16.9988 46.9644 16.9437 47.2042 16.9437C47.3817 16.9437 47.5451 16.9793 47.6946 17.0506C47.8441 17.1187 47.9687 17.2208 48.0683 17.3569V15.9374H48.5167ZM47.2415 19.1654C47.3972 19.1654 47.5389 19.1281 47.6666 19.0535C47.7943 18.9758 47.8939 18.8688 47.9655 18.7327C48.0372 18.5933 48.073 18.4345 48.073 18.2563C48.073 18.078 48.0372 17.9208 47.9655 17.7847C47.8939 17.6454 47.7943 17.5384 47.6666 17.4639C47.5389 17.3893 47.3972 17.352 47.2415 17.352C47.0827 17.352 46.9395 17.3893 46.8118 17.4639C46.6872 17.5384 46.5876 17.6454 46.5129 17.7847C46.4412 17.9208 46.4054 18.078 46.4054 18.2563C46.4054 18.4345 46.4412 18.5933 46.5129 18.7327C46.5876 18.8688 46.6872 18.9758 46.8118 19.0535C46.9395 19.1281 47.0827 19.1654 47.2415 19.1654Z" fill="white"/>
<path d="M51.6026 18.2709C51.6026 18.3065 51.5995 18.3535 51.5932 18.4118H49.5847C49.6127 18.6387 49.7077 18.8218 49.8696 18.9612C50.0347 19.0973 50.2386 19.1654 50.4815 19.1654C50.7774 19.1654 51.0156 19.0616 51.1962 18.8542L51.4438 19.1556C51.3317 19.2918 51.1915 19.3955 51.0234 19.4668C50.8583 19.5381 50.673 19.5737 50.4675 19.5737C50.2059 19.5737 49.974 19.5186 49.7715 19.4084C49.5691 19.295 49.4119 19.1378 49.2998 18.9369C49.1908 18.7359 49.1363 18.5091 49.1363 18.2563C49.1363 18.0067 49.1892 17.7815 49.2951 17.5805C49.4041 17.3796 49.552 17.224 49.7388 17.1138C49.9288 17.0004 50.1421 16.9437 50.3788 16.9437C50.6154 16.9437 50.8256 17.0004 51.0094 17.1138C51.1962 17.224 51.341 17.3796 51.4438 17.5805C51.5496 17.7815 51.6026 18.0116 51.6026 18.2709ZM50.3788 17.3375C50.1639 17.3375 49.9833 17.4055 49.8369 17.5416C49.6937 17.6778 49.6096 17.856 49.5847 18.0764H51.1728C51.1479 17.8593 51.0623 17.6826 50.9159 17.5465C50.7727 17.4071 50.5936 17.3375 50.3788 17.3375Z" fill="white"/>
<path d="M54.3703 16.968L53.2867 19.5445H52.8289L51.7452 16.968H52.2123L53.0625 19.0341L53.9313 16.968H54.3703Z" fill="white"/>
<path d="M56.9578 18.2709C56.9578 18.3065 56.9547 18.3535 56.9485 18.4118H54.9399C54.968 18.6387 55.0629 18.8218 55.2249 18.9612C55.3899 19.0973 55.5939 19.1654 55.8368 19.1654C56.1326 19.1654 56.3708 19.0616 56.5514 18.8542L56.799 19.1556C56.6869 19.2918 56.5468 19.3955 56.3786 19.4668C56.2136 19.5381 56.0283 19.5737 55.8228 19.5737C55.5612 19.5737 55.3292 19.5186 55.1268 19.4084C54.9244 19.295 54.7671 19.1378 54.655 18.9369C54.546 18.7359 54.4915 18.5091 54.4915 18.2563C54.4915 18.0067 54.5445 17.7815 54.6503 17.5805C54.7593 17.3796 54.9072 17.224 55.0941 17.1138C55.284 17.0004 55.4974 16.9437 55.734 16.9437C55.9707 16.9437 56.1809 17.0004 56.3646 17.1138C56.5514 17.224 56.6962 17.3796 56.799 17.5805C56.9049 17.7815 56.9578 18.0116 56.9578 18.2709ZM55.734 17.3375C55.5191 17.3375 55.3385 17.4055 55.1922 17.5416C55.0489 17.6778 54.9649 17.856 54.9399 18.0764H56.5281C56.5032 17.8593 56.4175 17.6826 56.2712 17.5465C56.1279 17.4071 55.9489 17.3375 55.734 17.3375Z" fill="white"/>
<path d="M57.5805 15.9374H58.0289V19.5445H57.5805V15.9374Z" fill="white"/>
<path d="M59.9454 19.5737C59.6994 19.5737 59.4783 19.517 59.2821 19.4036C59.0859 19.2901 58.9318 19.1346 58.8197 18.9369C58.7107 18.7359 58.6562 18.5091 58.6562 18.2563C58.6562 18.0035 58.7107 17.7782 58.8197 17.5805C58.9318 17.3796 59.0859 17.224 59.2821 17.1138C59.4783 17.0004 59.6994 16.9437 59.9454 16.9437C60.1914 16.9437 60.411 17.0004 60.604 17.1138C60.8002 17.224 60.9528 17.3796 61.0618 17.5805C61.1739 17.7782 61.2299 18.0035 61.2299 18.2563C61.2299 18.5091 61.1739 18.7359 61.0618 18.9369C60.9528 19.1346 60.8002 19.2901 60.604 19.4036C60.411 19.517 60.1914 19.5737 59.9454 19.5737ZM59.9454 19.1654C60.1042 19.1654 60.2459 19.1281 60.3705 19.0535C60.4981 18.9758 60.5978 18.8688 60.6694 18.7327C60.741 18.5933 60.7769 18.4345 60.7769 18.2563C60.7769 18.078 60.741 17.9208 60.6694 17.7847C60.5978 17.6454 60.4981 17.5384 60.3705 17.4639C60.2459 17.3893 60.1042 17.352 59.9454 17.352C59.7866 17.352 59.6434 17.3893 59.5157 17.4639C59.3911 17.5384 59.2915 17.6454 59.2167 17.7847C59.1451 17.9208 59.1093 18.078 59.1093 18.2563C59.1093 18.4345 59.1451 18.5933 59.2167 18.7327C59.2915 18.8688 59.3911 18.9758 59.5157 19.0535C59.6434 19.1281 59.7866 19.1654 59.9454 19.1654Z" fill="white"/>
<path d="M63.1626 16.9437C63.4024 16.9437 63.6173 16.9988 63.8072 17.109C63.9972 17.2192 64.1451 17.3731 64.251 17.5708C64.36 17.7685 64.4145 17.997 64.4145 18.2563C64.4145 18.5155 64.36 18.7457 64.251 18.9466C64.1451 19.1443 63.9972 19.2982 63.8072 19.4084C63.6173 19.5186 63.4024 19.5737 63.1626 19.5737C62.9851 19.5737 62.8217 19.5381 62.6722 19.4668C62.5258 19.3955 62.4013 19.2918 62.2985 19.1556V20.4877H61.8501V16.968H62.2798V17.3764C62.3795 17.2338 62.5056 17.1268 62.6582 17.0555C62.8108 16.981 62.9789 16.9437 63.1626 16.9437ZM63.1253 19.1654C63.2841 19.1654 63.4258 19.1281 63.5503 19.0535C63.678 18.9758 63.7777 18.8688 63.8493 18.7327C63.924 18.5933 63.9614 18.4345 63.9614 18.2563C63.9614 18.078 63.924 17.9208 63.8493 17.7847C63.7777 17.6454 63.678 17.5384 63.5503 17.4639C63.4258 17.3893 63.2841 17.352 63.1253 17.352C62.9696 17.352 62.8279 17.3909 62.7002 17.4687C62.5757 17.5433 62.476 17.6486 62.4013 17.7847C62.3297 17.9208 62.2938 18.078 62.2938 18.2563C62.2938 18.4345 62.3297 18.5933 62.4013 18.7327C62.4729 18.8688 62.5725 18.9758 62.7002 19.0535C62.8279 19.1281 62.9696 19.1654 63.1253 19.1654Z" fill="white"/>
<path d="M68.1309 16.9437C68.4423 16.9437 68.6883 17.0377 68.8689 17.2256C69.0527 17.4136 69.1445 17.6923 69.1445 18.0618V19.5445H68.6961V18.1153C68.6961 17.8657 68.6401 17.6778 68.528 17.5514C68.419 17.425 68.2617 17.3618 68.0562 17.3618C67.8289 17.3618 67.6483 17.4363 67.5144 17.5854C67.3805 17.7312 67.3135 17.9419 67.3135 18.2174V19.5445H66.8651V18.1153C66.8651 17.8657 66.809 17.6778 66.6969 17.5514C66.5879 17.425 66.4307 17.3618 66.2252 17.3618C65.9978 17.3618 65.8172 17.4363 65.6833 17.5854C65.5494 17.7312 65.4825 17.9419 65.4825 18.2174V19.5445H65.034V16.968H65.4638V17.352C65.5541 17.2192 65.6724 17.1187 65.8188 17.0506C65.9651 16.9793 66.1317 16.9437 66.3186 16.9437C66.5116 16.9437 66.6829 16.9842 66.8324 17.0652C66.9819 17.1462 67.0971 17.2645 67.178 17.4201C67.2715 17.271 67.4007 17.1543 67.5657 17.0701C67.7339 16.9858 67.9223 16.9437 68.1309 16.9437Z" fill="white"/>
<path d="M72.2207 18.2709C72.2207 18.3065 72.2176 18.3535 72.2114 18.4118H70.2029C70.2309 18.6387 70.3259 18.8218 70.4878 18.9612C70.6528 19.0973 70.8568 19.1654 71.0997 19.1654C71.3955 19.1654 71.6337 19.0616 71.8144 18.8542L72.0619 19.1556C71.9498 19.2918 71.8097 19.3955 71.6415 19.4668C71.4765 19.5381 71.2912 19.5737 71.0857 19.5737C70.8241 19.5737 70.5921 19.5186 70.3897 19.4084C70.1873 19.295 70.03 19.1378 69.9179 18.9369C69.8089 18.7359 69.7544 18.5091 69.7544 18.2563C69.7544 18.0067 69.8074 17.7815 69.9132 17.5805C70.0222 17.3796 70.1702 17.224 70.357 17.1138C70.547 17.0004 70.7603 16.9437 70.9969 16.9437C71.2336 16.9437 71.4438 17.0004 71.6275 17.1138C71.8144 17.224 71.9592 17.3796 72.0619 17.5805C72.1678 17.7815 72.2207 18.0116 72.2207 18.2709ZM70.9969 17.3375C70.7821 17.3375 70.6014 17.4055 70.4551 17.5416C70.3118 17.6778 70.2278 17.856 70.2029 18.0764H71.791C71.7661 17.8593 71.6804 17.6826 71.5341 17.5465C71.3908 17.4071 71.2118 17.3375 70.9969 17.3375Z" fill="white"/>
<path d="M74.1653 16.9437C74.4798 16.9437 74.7289 17.0393 74.9127 17.2305C75.0995 17.4185 75.1929 17.6956 75.1929 18.0618V19.5445H74.7445V18.1153C74.7445 17.8657 74.6869 17.6778 74.5717 17.5514C74.4565 17.425 74.2914 17.3618 74.0765 17.3618C73.8337 17.3618 73.6421 17.4363 73.502 17.5854C73.3619 17.7312 73.2918 17.9419 73.2918 18.2174V19.5445H72.8434V16.968H73.2731V17.3569C73.3634 17.224 73.4849 17.1219 73.6375 17.0506C73.7932 16.9793 73.9691 16.9437 74.1653 16.9437Z" fill="white"/>
<path d="M77.4148 19.3938C77.3494 19.4522 77.2684 19.4976 77.1719 19.53C77.0753 19.5591 76.9757 19.5737 76.8729 19.5737C76.6238 19.5737 76.4307 19.504 76.2937 19.3647C76.1567 19.2253 76.0882 19.026 76.0882 18.7667V17.352H75.6678V16.968H76.0882V16.4041H76.5366V16.968H77.2466V17.352H76.5366V18.7473C76.5366 18.8866 76.5693 18.9936 76.6347 19.0681C76.7032 19.1427 76.7997 19.1799 76.9243 19.1799C77.0613 19.1799 77.1781 19.1394 77.2746 19.0584L77.4148 19.3938Z" fill="white"/>
</svg>
