<svg width="45" height="45" viewBox="0 0 45 45" fill="none" xmlns="http://www.w3.org/2000/svg">
<circle cx="22.5" cy="22.5" r="22.5" fill="#01384D"/>
<path fill-rule="evenodd" clip-rule="evenodd" d="M15.4499 21.0832C15.8187 21.5248 16.4749 21.5853 16.9166 21.2165L21.4583 17.4321V29.7915C21.4583 30.3665 21.9249 30.8332 22.4999 30.8332C23.0749 30.8332 23.5416 30.3665 23.5416 29.7915V17.4321L28.0833 21.2165C28.526 21.5853 29.1822 21.5248 29.5499 21.0832C29.9187 20.6415 29.8593 19.9842 29.4166 19.6165L23.1666 14.4082C23.1177 14.3665 23.0593 14.3467 23.0052 14.3155C22.9624 14.2905 22.9249 14.2613 22.8781 14.2425C22.7562 14.1946 22.6291 14.1665 22.4999 14.1665C22.3708 14.1665 22.2437 14.1946 22.1218 14.2425C22.0749 14.2613 22.0374 14.2905 21.9947 14.3155C21.9406 14.3467 21.8822 14.3665 21.8333 14.4082L15.5833 19.6165C15.1416 19.9842 15.0812 20.6415 15.4499 21.0832Z" fill="white"/>
<mask id="mask0_34_1073" style="mask-type:luminance" maskUnits="userSpaceOnUse" x="15" y="14" width="15" height="17">
<path fill-rule="evenodd" clip-rule="evenodd" d="M15.4499 21.0832C15.8187 21.5248 16.4749 21.5853 16.9166 21.2165L21.4583 17.4321V29.7915C21.4583 30.3665 21.9249 30.8332 22.4999 30.8332C23.0749 30.8332 23.5416 30.3665 23.5416 29.7915V17.4321L28.0833 21.2165C28.526 21.5853 29.1822 21.5248 29.5499 21.0832C29.9187 20.6415 29.8593 19.9842 29.4166 19.6165L23.1666 14.4082C23.1177 14.3665 23.0593 14.3467 23.0052 14.3155C22.9624 14.2905 22.9249 14.2613 22.8781 14.2425C22.7562 14.1946 22.6291 14.1665 22.4999 14.1665C22.3708 14.1665 22.2437 14.1946 22.1218 14.2425C22.0749 14.2613 22.0374 14.2905 21.9947 14.3155C21.9406 14.3467 21.8822 14.3665 21.8333 14.4082L15.5833 19.6165C15.1416 19.9842 15.0812 20.6415 15.4499 21.0832Z" fill="white"/>
</mask>
<g mask="url(#mask0_34_1073)">
<rect x="10" y="10" width="25" height="25" fill="white"/>
</g>
</svg>
