<svg width="11" height="13" viewBox="0 0 11 13" fill="none" xmlns="http://www.w3.org/2000/svg">
<path fill-rule="evenodd" clip-rule="evenodd" d="M0.1875 5.4486C0.1875 2.57368 2.58993 0.25 5.4959 0.25C8.41008 0.25 10.8125 2.57368 10.8125 5.4486C10.8125 6.89731 10.2856 8.24227 9.41844 9.38224C8.46175 10.6397 7.2826 11.7353 5.95534 12.5953C5.65157 12.794 5.37742 12.809 5.04403 12.5953C3.70921 11.7353 2.53005 10.6397 1.58156 9.38224C0.71374 8.24227 0.1875 6.89731 0.1875 5.4486ZM3.74641 5.61028C3.74641 6.57337 4.53231 7.33085 5.49592 7.33085C6.46017 7.33085 7.25363 6.57337 7.25363 5.61028C7.25363 4.65468 6.46017 3.86033 5.49592 3.86033C4.53231 3.86033 3.74641 4.65468 3.74641 5.61028Z" fill="#01384D"/>
</svg>
