<svg width="250" height="224" viewBox="0 0 250 224" fill="none" xmlns="http://www.w3.org/2000/svg">
<path d="M61.9414 57.2739C57.6426 44.5774 44.3677 37.5209 35.6347 40.4075C26.9017 43.2941 20.5964 56.8226 24.8951 69.5192C28.8741 81.2714 40.931 88.0559 49.2253 86.8452C49.1655 86.948 49.1261 87.0611 49.1093 87.1785L48.8557 89.2686C48.8364 89.4279 48.8586 89.5895 48.9202 89.7379C48.9819 89.8864 49.0809 90.0168 49.2079 90.1168C49.3349 90.2168 49.4857 90.2831 49.6459 90.3094C49.8061 90.3356 49.9704 90.321 50.1233 90.2668L54.3958 88.7531C54.5487 88.6989 54.6851 88.6071 54.7919 88.4862C54.8987 88.3654 54.9725 88.2195 55.0063 88.0625C55.04 87.9056 55.0326 87.7427 54.9847 87.5893C54.9369 87.436 54.8501 87.2973 54.7327 87.1864L53.1926 85.7318C53.1379 85.6823 53.0774 85.6394 53.0124 85.6039C60.4102 81.6648 65.929 69.0517 61.9414 57.2739Z" fill="#CCC5C5"/>
<path d="M46.3792 47.9331C49.9491 49.7535 52.6754 52.8586 53.9954 56.6076C55.3153 60.3566 55.1281 64.4632 53.4725 68.0798C53.1028 68.9113 54.4623 69.3486 54.8296 68.5225C56.5679 64.6094 56.7447 60.1915 55.3246 56.155C53.9044 52.1185 50.9922 48.7616 47.1721 46.7577C46.3658 46.3356 45.5669 47.5078 46.3792 47.9331Z" fill="white"/>
<path d="M235.981 38.7669C231.683 26.0703 218.408 19.0138 209.675 21.9004C200.942 24.787 194.636 38.3156 198.935 51.0121C202.914 62.7643 214.971 69.5489 223.265 68.3381C223.206 68.4409 223.166 68.554 223.149 68.6714L222.896 70.7615C222.876 70.9208 222.899 71.0824 222.96 71.2308C223.022 71.3793 223.121 71.5097 223.248 71.6097C223.375 71.7098 223.526 71.776 223.686 71.8023C223.846 71.8285 224.011 71.8139 224.163 71.7597L228.436 70.246C228.589 70.1919 228.725 70.1 228.832 69.9791C228.939 69.8583 229.013 69.7124 229.046 69.5555C229.08 69.3985 229.073 69.2356 229.025 69.0823C228.977 68.9289 228.89 68.7902 228.773 68.6793L227.233 67.2247C227.178 67.1752 227.117 67.1323 227.052 67.0968C234.45 63.1577 239.969 50.5446 235.981 38.7669Z" fill="#CCC5C5"/>
<path d="M220.419 29.4257C223.989 31.2461 226.716 34.3513 228.036 38.1003C229.356 41.8493 229.168 45.9559 227.513 49.5724C227.143 50.404 228.503 50.8413 228.87 50.0152C230.608 46.102 230.785 41.6842 229.365 37.6477C227.945 33.6111 225.033 30.2543 221.212 28.2504C220.406 27.8283 219.607 29.0004 220.419 29.4257Z" fill="white"/>
<path d="M134.913 18.3318C130.615 5.63527 117.34 -1.42127 108.607 1.46533C99.8736 4.35193 93.5683 17.8805 97.867 30.577C101.846 42.3293 113.903 49.1138 122.197 47.9031C122.137 48.0059 122.098 48.119 122.081 48.2364L121.828 50.3265C121.808 50.4858 121.831 50.6473 121.892 50.7958C121.954 50.9443 122.053 51.0747 122.18 51.1747C122.307 51.2747 122.458 51.341 122.618 51.3672C122.778 51.3935 122.942 51.3788 123.095 51.3247L127.368 49.811C127.521 49.7568 127.657 49.665 127.764 49.5441C127.871 49.4232 127.944 49.2774 127.978 49.1204C128.012 48.9634 128.005 48.8006 127.957 48.6472C127.909 48.4939 127.822 48.3552 127.705 48.2443L126.165 46.7897C126.11 46.7402 126.049 46.6972 125.984 46.6617C133.382 42.7226 138.901 30.1096 134.913 18.3318Z" fill="#CCC5C5"/>
<path d="M119.351 8.99068C122.921 10.8111 125.647 13.9163 126.967 17.6652C128.287 21.4142 128.1 25.5208 126.444 29.1374C126.075 29.9689 127.434 30.4062 127.802 29.5801C129.54 25.667 129.717 21.2492 128.297 17.2126C126.876 13.1761 123.964 9.81926 120.144 7.81536C119.338 7.39319 118.539 8.56538 119.351 8.99068Z" fill="white"/>
<path d="M113.353 79.4254C113.919 79.4254 114.377 78.9724 114.377 78.4135C114.377 77.8546 113.919 77.4016 113.353 77.4016C112.788 77.4016 112.329 77.8546 112.329 78.4135C112.329 78.9724 112.788 79.4254 113.353 79.4254Z" fill="#01384D"/>
<path d="M111.171 120.017C112.288 120.017 113.194 119.122 113.194 118.018C113.194 116.914 112.288 116.019 111.171 116.019C110.053 116.019 109.147 116.914 109.147 118.018C109.147 119.122 110.053 120.017 111.171 120.017Z" fill="#01384D"/>
<path d="M77.3006 112.32C77.9463 112.32 78.4697 111.803 78.4697 111.165C78.4697 110.527 77.9463 110.01 77.3006 110.01C76.655 110.01 76.1316 110.527 76.1316 111.165C76.1316 111.803 76.655 112.32 77.3006 112.32Z" fill="#01384D"/>
<path d="M95.0609 93.4066C95.7601 93.4066 96.327 92.8465 96.327 92.1557C96.327 91.4648 95.7601 90.9048 95.0609 90.9048C94.3617 90.9048 93.7949 91.4648 93.7949 92.1557C93.7949 92.8465 94.3617 93.4066 95.0609 93.4066Z" fill="#01384D"/>
<path d="M157.358 166.644C157.924 166.644 158.382 166.191 158.382 165.632C158.382 165.073 157.924 164.62 157.358 164.62C156.793 164.62 156.334 165.073 156.334 165.632C156.334 166.191 156.793 166.644 157.358 166.644Z" fill="#01384D"/>
<path d="M123.819 145.836C124.936 145.836 125.842 144.941 125.842 143.837C125.842 142.733 124.936 141.838 123.819 141.838C122.701 141.838 121.795 142.733 121.795 143.837C121.795 144.941 122.701 145.836 123.819 145.836Z" fill="#01384D"/>
<path d="M146.857 119.522C147.502 119.522 148.026 119.005 148.026 118.367C148.026 117.729 147.502 117.212 146.857 117.212C146.211 117.212 145.688 117.729 145.688 118.367C145.688 119.005 146.211 119.522 146.857 119.522Z" fill="#01384D"/>
<path d="M154.544 144.348C155.244 144.348 155.81 143.788 155.81 143.097C155.81 142.406 155.244 141.846 154.544 141.846C153.845 141.846 153.278 142.406 153.278 143.097C153.278 143.788 153.845 144.348 154.544 144.348Z" fill="#01384D"/>
<path d="M222.735 208.774C223.852 207.85 222.342 204.251 219.363 200.735C216.384 197.219 213.063 195.118 211.946 196.042C210.829 196.966 212.339 200.566 215.318 204.082C218.297 207.597 221.618 209.698 222.735 208.774Z" fill="#01384D"/>
<path d="M199.466 216.13C208.747 216.13 216.272 208.696 216.272 199.525C216.272 190.354 208.747 182.92 199.466 182.92C190.184 182.92 182.66 190.354 182.66 199.525C182.66 208.696 190.184 216.13 199.466 216.13Z" fill="#01384D"/>
<path d="M206.579 212.557H201.473V221.595H206.579V212.557Z" fill="#01384D"/>
<path d="M196.368 212.557H191.262V221.595H196.368V212.557Z" fill="#01384D"/>
<path d="M202.324 223.277C204.674 223.277 206.579 222.571 206.579 221.7C206.579 220.83 204.674 220.124 202.324 220.124C199.974 220.124 198.07 220.83 198.07 221.7C198.07 222.571 199.974 223.277 202.324 223.277Z" fill="#01384D"/>
<path d="M192.113 223.067C194.463 223.067 196.368 222.361 196.368 221.49C196.368 220.62 194.463 219.914 192.113 219.914C189.763 219.914 187.858 220.62 187.858 221.49C187.858 222.361 189.763 223.067 192.113 223.067Z" fill="#01384D"/>
<path d="M194.189 178.652C195.689 172.681 202.314 169.167 208.984 170.803C215.655 172.44 219.846 178.607 218.345 184.578C216.844 190.55 211.866 190.569 205.195 188.932C198.525 187.296 192.688 184.623 194.189 178.652Z" fill="#DAC3C3"/>
<path d="M188.129 195.378C188.753 194.078 185.86 191.43 181.667 189.465C177.474 187.5 173.568 186.962 172.944 188.262C172.32 189.563 175.213 192.21 179.406 194.175C183.599 196.14 187.504 196.679 188.129 195.378Z" fill="#01384D"/>
<path d="M196.953 201.558C200.048 201.558 202.556 199.079 202.556 196.021C202.556 192.964 200.048 190.485 196.953 190.485C193.859 190.485 191.35 192.964 191.35 196.021C191.35 199.079 193.859 201.558 196.953 201.558Z" fill="white"/>
<path d="M194.65 195.882C195.682 195.882 196.518 195.056 196.518 194.037C196.518 193.018 195.682 192.191 194.65 192.191C193.619 192.191 192.783 193.018 192.783 194.037C192.783 195.056 193.619 195.882 194.65 195.882Z" fill="#01384D"/>
<path d="M200.468 207.555C200.556 208.032 200.548 208.522 200.444 208.995C200.341 209.469 200.144 209.918 199.865 210.317C199.585 210.715 199.23 211.056 198.817 211.318C198.405 211.581 197.945 211.761 197.462 211.848C196.979 211.934 196.484 211.926 196.005 211.824C195.525 211.722 195.071 211.527 194.667 211.251C194.264 210.976 193.92 210.624 193.654 210.217C193.388 209.809 193.206 209.354 193.118 208.878L193.117 208.87C192.749 206.865 194.319 206.155 196.349 205.792C198.379 205.429 200.1 205.55 200.468 207.555Z" fill="white"/>
<path d="M61.2967 187.917C62.9536 183.633 63.1936 179.744 61.8327 179.231C60.4718 178.717 58.0254 181.772 56.3685 186.055C54.7116 190.339 54.4716 194.227 55.8325 194.741C57.1934 195.255 59.6398 192.2 61.2967 187.917Z" fill="#01384D"/>
<path d="M43.2988 216.13C52.5805 216.13 60.1048 208.696 60.1048 199.525C60.1048 190.354 52.5805 182.92 43.2988 182.92C34.0172 182.92 26.4929 190.354 26.4929 199.525C26.4929 208.696 34.0172 216.13 43.2988 216.13Z" fill="#01384D"/>
<path d="M40.7462 212.557H35.6406V221.595H40.7462V212.557Z" fill="#01384D"/>
<path d="M50.9574 212.557H45.8518V221.595H50.9574V212.557Z" fill="#01384D"/>
<path d="M39.8953 223.277C42.2451 223.277 44.15 222.571 44.15 221.7C44.15 220.83 42.2451 220.124 39.8953 220.124C37.5455 220.124 35.6406 220.83 35.6406 221.7C35.6406 222.571 37.5455 223.277 39.8953 223.277Z" fill="#01384D"/>
<path d="M50.1065 223.067C52.4563 223.067 54.3611 222.361 54.3611 221.49C54.3611 220.62 52.4563 219.914 50.1065 219.914C47.7567 219.914 45.8518 220.62 45.8518 221.49C45.8518 222.361 47.7567 223.067 50.1065 223.067Z" fill="#01384D"/>
<path d="M43.7245 200.996C46.8967 200.996 49.4683 198.456 49.4683 195.321C49.4683 192.187 46.8967 189.646 43.7245 189.646C40.5523 189.646 37.9807 192.187 37.9807 195.321C37.9807 198.456 40.5523 200.996 43.7245 200.996Z" fill="white"/>
<path d="M43.7244 197.213C44.7818 197.213 45.639 196.366 45.639 195.321C45.639 194.276 44.7818 193.429 43.7244 193.429C42.667 193.429 41.8098 194.276 41.8098 195.321C41.8098 196.366 42.667 197.213 43.7244 197.213Z" fill="#01384D"/>
<path d="M26.9967 184.083C25.6397 178.078 29.9775 172.011 36.6855 170.531C43.3934 169.051 49.9313 172.719 51.2883 178.723C52.6453 184.728 48.1997 186.943 41.4918 188.423C34.7839 189.903 28.3537 190.088 26.9967 184.083Z" fill="#DAC3C3"/>
<path d="M31.9623 195.378C32.5866 194.078 29.6935 191.43 25.5004 189.465C21.3073 187.5 17.402 186.962 16.7777 188.262C16.1533 189.563 19.0464 192.21 23.2395 194.175C27.4327 196.14 31.338 196.679 31.9623 195.378Z" fill="#01384D"/>
<path d="M35.0439 205.515C35.0439 207.141 39.2792 210.35 43.9787 210.35C48.6783 210.35 53.0847 205.774 53.0847 204.149C53.0847 202.524 48.6783 204.465 43.9787 204.465C39.2792 204.465 35.0439 203.89 35.0439 205.515Z" fill="white"/>
<path d="M123.575 200.322C132.857 200.322 140.381 192.888 140.381 183.717C140.381 174.546 132.857 167.112 123.575 167.112C114.294 167.112 106.77 174.546 106.77 183.717C106.77 192.888 114.294 200.322 123.575 200.322Z" fill="#01384D"/>
<path d="M121.023 196.749H115.917V205.787H121.023V196.749Z" fill="#01384D"/>
<path d="M131.234 196.749H126.128V205.787H131.234V196.749Z" fill="#01384D"/>
<path d="M120.172 207.469C122.521 207.469 124.426 206.763 124.426 205.892C124.426 205.022 122.521 204.316 120.172 204.316C117.822 204.316 115.917 205.022 115.917 205.892C115.917 206.763 117.822 207.469 120.172 207.469Z" fill="#01384D"/>
<path d="M130.383 207.258C132.733 207.258 134.638 206.553 134.638 205.682C134.638 204.811 132.733 204.105 130.383 204.105C128.033 204.105 126.128 204.811 126.128 205.682C126.128 206.553 128.033 207.258 130.383 207.258Z" fill="#01384D"/>
<path d="M107.273 168.275C105.916 162.27 110.254 156.202 116.962 154.723C123.67 153.243 130.208 156.911 131.565 162.915C132.922 168.92 128.476 171.135 121.768 172.615C115.06 174.095 108.63 174.279 107.273 168.275Z" fill="#DCAE8C"/>
<path d="M141.686 176.461C145.325 172.862 147.349 169.029 146.205 167.9C145.062 166.771 141.185 168.774 137.545 172.372C133.905 175.971 131.882 179.804 133.025 180.933C134.169 182.062 138.046 180.06 141.686 176.461Z" fill="#01384D"/>
<path d="M110.029 182.09C111.173 180.961 109.149 177.128 105.51 173.529C101.87 169.93 97.9927 167.928 96.8492 169.057C95.7058 170.186 97.7293 174.019 101.369 177.618C105.009 181.216 108.886 183.219 110.029 182.09Z" fill="#01384D"/>
<path d="M225.747 78.3298C225.19 61.3033 213.387 47.8638 199.386 48.3117C168.225 49.2239 167.464 105.684 197.549 109.74L196.912 114.743L206.204 114.446L205.241 109.494C217.343 106.851 226.253 93.7662 225.747 78.3298Z" fill="#EABF9F"/>
<path d="M183.89 87.7697L180.38 87.882C179.004 81.4184 178.786 74.7665 179.736 68.2285L183.246 68.1162C181.95 74.9601 182.165 81.5113 183.89 87.7697Z" fill="white"/>
<path d="M206.659 109.416L196.128 109.753L196.204 112.065L206.735 111.728L206.659 109.416Z" fill="#01384D"/>
<path d="M176.072 197.952L175.012 197.462L201.084 110.103L202.144 110.594L176.072 197.952Z" fill="#01384D"/>
<path d="M247.326 92.7276C253.693 76.8964 248.301 59.9191 235.283 54.8076C206.344 43.3543 182.836 94.8213 208.782 110.405L206.177 114.741L214.816 118.133L215.933 113.213C228.097 115.563 241.553 107.08 247.326 92.7276Z" fill="#DCAE8C"/>
<path d="M205.134 84.8746L201.871 83.5932C203.22 77.1242 205.708 70.9392 209.22 65.3193L212.484 66.6008C208.53 72.3645 206.08 78.4558 205.134 84.8746Z" fill="white"/>
<path d="M207.474 109.857L206.61 112.007L216.401 115.851L217.266 113.701L207.474 109.857Z" fill="#01384D"/>
<path d="M175.866 195.653L174.849 195.08L211.248 113.006L212.266 113.578L175.866 195.653Z" fill="#01384D"/>
<path d="M49.4774 79.43C42.5888 63.8134 26.5941 55.6369 13.7524 61.167C-14.8595 73.3963 5.55733 126.135 35.0282 118.915L36.3081 123.796L44.8303 120.126L42.0828 115.877C52.3389 109.001 55.7227 93.5882 49.4774 79.43Z" fill="#DCAE8C"/>
<path d="M14.1173 103.49L10.8978 104.876C7.20096 99.3733 4.50969 93.2722 2.94629 86.8503L6.16581 85.4639C7.52173 92.2965 10.1722 98.3052 14.1173 103.49Z" fill="white"/>
<path d="M43.3717 115.286L33.7131 119.446L34.6486 121.566L44.3072 117.407L43.3717 115.286Z" fill="#01384D"/>
<path d="M65.7182 198.176C65.5675 198.212 65.4082 198.189 65.2753 198.11C65.1423 198.03 65.0466 197.902 65.0092 197.753L39.5637 118.089L40.6999 117.811L66.1454 197.475C66.1639 197.549 66.1675 197.625 66.1561 197.7C66.1446 197.775 66.1183 197.848 66.0786 197.913C66.039 197.978 65.9867 198.034 65.9249 198.08C65.863 198.125 65.7928 198.157 65.7182 198.176Z" fill="#01384D"/>
<path d="M72.5187 223.363H11.2535C11.15 223.363 11.0508 223.323 10.9776 223.25C10.9044 223.178 10.8633 223.08 10.8633 222.978C10.8633 222.875 10.9044 222.777 10.9776 222.705C11.0508 222.633 11.15 222.592 11.2535 222.592H72.5187C72.6222 222.592 72.7215 222.633 72.7946 222.705C72.8678 222.777 72.9089 222.875 72.9089 222.978C72.9089 223.08 72.8678 223.178 72.7946 223.25C72.7215 223.323 72.6222 223.363 72.5187 223.363Z" fill="#01384D"/>
<path d="M228.218 223.363H166.953C166.849 223.363 166.75 223.323 166.677 223.25C166.604 223.178 166.563 223.08 166.563 222.978C166.563 222.875 166.604 222.777 166.677 222.705C166.75 222.633 166.849 222.592 166.953 222.592H228.218C228.322 222.592 228.421 222.633 228.494 222.705C228.567 222.777 228.608 222.875 228.608 222.978C228.608 223.08 228.567 223.178 228.494 223.25C228.421 223.323 228.322 223.363 228.218 223.363Z" fill="#01384D"/>
<path d="M155.246 207.555H93.981C93.8776 207.555 93.7783 207.514 93.7051 207.442C93.6319 207.37 93.5908 207.272 93.5908 207.169C93.5908 207.067 93.6319 206.969 93.7051 206.897C93.7783 206.825 93.8776 206.784 93.981 206.784H155.246C155.35 206.784 155.449 206.825 155.522 206.897C155.595 206.969 155.636 207.067 155.636 207.169C155.636 207.272 155.595 207.37 155.522 207.442C155.449 207.514 155.35 207.555 155.246 207.555Z" fill="#01384D"/>
<path d="M122.869 187.039C126.041 187.039 128.612 184.498 128.612 181.364C128.612 178.23 126.041 175.689 122.869 175.689C119.696 175.689 117.125 178.23 117.125 181.364C117.125 184.498 119.696 187.039 122.869 187.039Z" fill="white"/>
<path d="M122.868 183.256C123.926 183.256 124.783 182.409 124.783 181.364C124.783 180.319 123.926 179.472 122.868 179.472C121.811 179.472 120.954 180.319 120.954 181.364C120.954 182.409 121.811 183.256 122.868 183.256Z" fill="#01384D"/>
<path d="M127.428 191.86C127.606 192.823 127.389 193.816 126.825 194.621C126.261 195.426 125.397 195.977 124.422 196.152C123.447 196.327 122.442 196.113 121.628 195.556C120.813 194.999 120.256 194.145 120.078 193.182L120.077 193.175C119.709 191.169 121.279 190.459 123.309 190.096C125.339 189.733 127.061 189.854 127.428 191.86Z" fill="white"/>
</svg>
