<svg width="24" height="24" viewBox="0 0 24 24" fill="none" xmlns="http://www.w3.org/2000/svg">
<g clip-path="url(#clip0_34_806)">
<path d="M15.5 13.9999H14.71L14.43 13.7299C15.63 12.3299 16.25 10.4199 15.91 8.38989C15.44 5.60989 13.12 3.38989 10.32 3.04989C6.09002 2.52989 2.54002 6.08989 3.05002 10.3199C3.39002 13.1199 5.61002 15.4399 8.39002 15.9099C10.42 16.2499 12.33 15.6299 13.73 14.4299L14 14.7099V15.4999L18.26 19.7499C18.67 20.1599 19.33 20.1599 19.74 19.7499L19.75 19.7399C20.16 19.3299 20.16 18.6699 19.75 18.2599L15.5 13.9999ZM9.50002 13.9999C7.01002 13.9999 5.00002 11.9899 5.00002 9.49989C5.00002 7.00989 7.01002 4.99989 9.50002 4.99989C11.99 4.99989 14 7.00989 14 9.49989C14 11.9899 11.99 13.9999 9.50002 13.9999ZM9.50002 6.99989C9.22002 6.99989 9.00002 7.21989 9.00002 7.49989V8.99989H7.50002C7.22002 8.99989 7.00002 9.21989 7.00002 9.49989C7.00002 9.77989 7.22002 9.99989 7.50002 9.99989H9.00002V11.4999C9.00002 11.7799 9.22002 11.9999 9.50002 11.9999C9.78002 11.9999 10 11.7799 10 11.4999V9.99989H11.5C11.78 9.99989 12 9.77989 12 9.49989C12 9.21989 11.78 8.99989 11.5 8.99989H10V7.49989C10 7.21989 9.78002 6.99989 9.50002 6.99989Z" fill="#01384D"/>
</g>
<defs>
<clipPath id="clip0_34_806">
<rect width="24" height="24" fill="white"/>
</clipPath>
</defs>
</svg>
